<?xml version="1.0" encoding="utf-8"?>
<!-- Generator: Adobe Illustrator 17.1.0, SVG Export Plug-In . SVG Version: 6.00 Build 0)  -->
<!DOCTYPE svg PUBLIC "-//W3C//DTD SVG 1.1//EN" "http://www.w3.org/Graphics/SVG/1.1/DTD/svg11.dtd">
<svg version="1.1" id="Layer_1" xmlns="http://www.w3.org/2000/svg" xmlns:xlink="http://www.w3.org/1999/xlink" x="0px" y="0px"
	 viewBox="0 0 70 70" enable-background="new 0 0 70 70" xml:space="preserve">
<g id="Layer_2" display="none">
	<rect x="-1" display="inline" width="71" height="70"/>
</g>
<path fill="none" stroke="#FFFFFF" stroke-width="2" stroke-miterlimit="10" d="M65.7,42H4.3C2.5,42,1,40.5,1,38.7V4.3
	C1,2.5,2.5,1,4.3,1h61.4C67.5,1,69,2.5,69,4.3v34.4C69,40.5,67.5,42,65.7,42z"/>
<path fill="#FFFFFF" stroke="#FFFFFF" stroke-miterlimit="10" d="M46.5,47.7H23.5c-0.7,0-1.2-0.2-1.2-0.5v-4.7
	c0-0.3,0.6-0.5,1.2-0.5h22.9c0.7,0,1.2,0.2,1.2,0.5v4.7C47.7,47.5,47.2,47.7,46.5,47.7z"/>
</svg>
