<?xml version="1.0" encoding="iso-8859-1"?>
<!-- Generator: Adobe Illustrator 17.1.0, SVG Export Plug-In . SVG Version: 6.00 Build 0)  -->
<!DOCTYPE svg PUBLIC "-//W3C//DTD SVG 1.1//EN" "http://www.w3.org/Graphics/SVG/1.1/DTD/svg11.dtd">
<svg version="1.1" xmlns="http://www.w3.org/2000/svg" xmlns:xlink="http://www.w3.org/1999/xlink" x="0px" y="0px"
	 viewBox="0 0 70 70" style="enable-background:new 0 0 70 70;" xml:space="preserve">
<g id="Layer_2" style="display:none;">
	<rect x="-1" style="display:inline;" width="71" height="70"/>
</g>
<g id="Layer_1">
	<path style="fill:none;stroke:#FFFFFF;stroke-width:2;stroke-miterlimit:10;" d="M65.676,42H4.324C2.488,42,1,40.512,1,38.676
		V4.324C1,2.488,2.488,1,4.324,1h61.353C67.512,1,69,2.488,69,4.324v34.353C69,40.512,67.512,42,65.676,42z"/>
	<path style="fill:#FFFFFF;stroke:#FFFFFF;stroke-width:2;stroke-miterlimit:10;" d="M64.124,46.485H4.876
		c-1.773,0-3.21-0.049-3.21-0.109v-1.13c0-0.06,1.437-0.109,3.21-0.109h59.248c1.773,0,3.21,0.049,3.21,0.109v1.13
		C67.333,46.436,65.896,46.485,64.124,46.485z"/>
</g>
</svg>
